<mxfile host="app.diagrams.net" modified="2022-10-17T16:23:53.654Z" agent="5.0 (Windows NT 10.0; Win64; x64) AppleWebKit/537.36 (KHTML, like Gecko) Chrome/106.0.0.0 Safari/537.36" etag="Haog-QBvAU-_459h_Al2" version="20.4.1" type="github">
  <diagram id="C5RBs43oDa-KdzZeNtuy" name="Page-1">
    <mxGraphModel dx="2426" dy="1120" grid="1" gridSize="10" guides="1" tooltips="1" connect="1" arrows="1" fold="1" page="1" pageScale="1" pageWidth="1000" pageHeight="200" math="0" shadow="0">
      <root>
        <mxCell id="WIyWlLk6GJQsqaUBKTNV-0" />
        <mxCell id="WIyWlLk6GJQsqaUBKTNV-1" parent="WIyWlLk6GJQsqaUBKTNV-0" />
        <mxCell id="Ruqp24-l0FOlhLBE5k4N-1" value="Составить блок-схему нахождения среднего арифметического из 4-х чисел" style="text;html=1;strokeColor=none;fillColor=none;align=center;verticalAlign=middle;whiteSpace=wrap;rounded=0;fontStyle=1;fontSize=14;" vertex="1" parent="WIyWlLk6GJQsqaUBKTNV-1">
          <mxGeometry x="80" y="240" width="531" height="40" as="geometry" />
        </mxCell>
        <mxCell id="Ruqp24-l0FOlhLBE5k4N-5" value="" style="edgeStyle=orthogonalEdgeStyle;rounded=0;orthogonalLoop=1;jettySize=auto;html=1;fontSize=14;" edge="1" parent="WIyWlLk6GJQsqaUBKTNV-1" source="Ruqp24-l0FOlhLBE5k4N-3" target="Ruqp24-l0FOlhLBE5k4N-4">
          <mxGeometry relative="1" as="geometry" />
        </mxCell>
        <mxCell id="Ruqp24-l0FOlhLBE5k4N-3" value="Start" style="ellipse;whiteSpace=wrap;html=1;fontSize=14;" vertex="1" parent="WIyWlLk6GJQsqaUBKTNV-1">
          <mxGeometry x="50" y="388" width="70" height="50" as="geometry" />
        </mxCell>
        <mxCell id="Ruqp24-l0FOlhLBE5k4N-7" value="" style="edgeStyle=orthogonalEdgeStyle;rounded=0;orthogonalLoop=1;jettySize=auto;html=1;fontSize=14;" edge="1" parent="WIyWlLk6GJQsqaUBKTNV-1" source="Ruqp24-l0FOlhLBE5k4N-4" target="Ruqp24-l0FOlhLBE5k4N-6">
          <mxGeometry relative="1" as="geometry" />
        </mxCell>
        <mxCell id="Ruqp24-l0FOlhLBE5k4N-4" value="x=1&lt;br style=&quot;font-size: 14px;&quot;&gt;y=15&lt;br style=&quot;font-size: 14px;&quot;&gt;sum=0" style="shape=parallelogram;perimeter=parallelogramPerimeter;whiteSpace=wrap;html=1;fixedSize=1;fontSize=14;" vertex="1" parent="WIyWlLk6GJQsqaUBKTNV-1">
          <mxGeometry x="130" y="383" width="95" height="60" as="geometry" />
        </mxCell>
        <mxCell id="Ruqp24-l0FOlhLBE5k4N-9" value="Yes" style="edgeStyle=orthogonalEdgeStyle;rounded=0;orthogonalLoop=1;jettySize=auto;html=1;fontSize=14;" edge="1" parent="WIyWlLk6GJQsqaUBKTNV-1" source="Ruqp24-l0FOlhLBE5k4N-6" target="Ruqp24-l0FOlhLBE5k4N-8">
          <mxGeometry relative="1" as="geometry" />
        </mxCell>
        <mxCell id="Ruqp24-l0FOlhLBE5k4N-6" value="x&amp;lt;=y" style="rhombus;whiteSpace=wrap;html=1;fontSize=14;" vertex="1" parent="WIyWlLk6GJQsqaUBKTNV-1">
          <mxGeometry x="250" y="373" width="80" height="80" as="geometry" />
        </mxCell>
        <mxCell id="Ruqp24-l0FOlhLBE5k4N-11" value="Yes" style="edgeStyle=orthogonalEdgeStyle;rounded=0;orthogonalLoop=1;jettySize=auto;html=1;fontSize=14;" edge="1" parent="WIyWlLk6GJQsqaUBKTNV-1" source="Ruqp24-l0FOlhLBE5k4N-8" target="Ruqp24-l0FOlhLBE5k4N-10">
          <mxGeometry relative="1" as="geometry" />
        </mxCell>
        <mxCell id="Ruqp24-l0FOlhLBE5k4N-14" value="No" style="edgeStyle=orthogonalEdgeStyle;rounded=0;orthogonalLoop=1;jettySize=auto;html=1;fontSize=14;" edge="1" parent="WIyWlLk6GJQsqaUBKTNV-1" source="Ruqp24-l0FOlhLBE5k4N-8" target="Ruqp24-l0FOlhLBE5k4N-13">
          <mxGeometry relative="1" as="geometry" />
        </mxCell>
        <mxCell id="Ruqp24-l0FOlhLBE5k4N-8" value="x%2==0" style="rhombus;whiteSpace=wrap;html=1;fontSize=14;" vertex="1" parent="WIyWlLk6GJQsqaUBKTNV-1">
          <mxGeometry x="384" y="373" width="80" height="80" as="geometry" />
        </mxCell>
        <mxCell id="Ruqp24-l0FOlhLBE5k4N-10" value="sum+=x" style="rounded=1;whiteSpace=wrap;html=1;fontSize=14;" vertex="1" parent="WIyWlLk6GJQsqaUBKTNV-1">
          <mxGeometry x="530" y="383" width="120" height="60" as="geometry" />
        </mxCell>
        <mxCell id="Ruqp24-l0FOlhLBE5k4N-12" value="Оставил в окне ввода объявление переменной sum, т.к. без при первой попытке объявить сумму получим ошибку?" style="text;html=1;strokeColor=none;fillColor=none;align=left;verticalAlign=middle;whiteSpace=wrap;rounded=0;" vertex="1" parent="WIyWlLk6GJQsqaUBKTNV-1">
          <mxGeometry x="80" y="290" width="424" height="30" as="geometry" />
        </mxCell>
        <mxCell id="Ruqp24-l0FOlhLBE5k4N-13" value="x+=1" style="rounded=1;whiteSpace=wrap;html=1;fontSize=14;" vertex="1" parent="WIyWlLk6GJQsqaUBKTNV-1">
          <mxGeometry x="364" y="483" width="120" height="60" as="geometry" />
        </mxCell>
        <mxCell id="Ruqp24-l0FOlhLBE5k4N-15" value="" style="endArrow=classic;html=1;rounded=0;fontSize=14;entryX=0.5;entryY=1;entryDx=0;entryDy=0;exitX=0;exitY=0.5;exitDx=0;exitDy=0;" edge="1" parent="WIyWlLk6GJQsqaUBKTNV-1" source="Ruqp24-l0FOlhLBE5k4N-13" target="Ruqp24-l0FOlhLBE5k4N-6">
          <mxGeometry width="50" height="50" relative="1" as="geometry">
            <mxPoint x="290" y="543" as="sourcePoint" />
            <mxPoint x="340" y="493" as="targetPoint" />
            <Array as="points">
              <mxPoint x="290" y="513" />
            </Array>
          </mxGeometry>
        </mxCell>
        <mxCell id="Ruqp24-l0FOlhLBE5k4N-16" value="" style="endArrow=classic;html=1;rounded=0;fontSize=14;exitX=0.5;exitY=1;exitDx=0;exitDy=0;entryX=1;entryY=0.5;entryDx=0;entryDy=0;" edge="1" parent="WIyWlLk6GJQsqaUBKTNV-1" source="Ruqp24-l0FOlhLBE5k4N-10" target="Ruqp24-l0FOlhLBE5k4N-13">
          <mxGeometry width="50" height="50" relative="1" as="geometry">
            <mxPoint x="550" y="533" as="sourcePoint" />
            <mxPoint x="600" y="483" as="targetPoint" />
            <Array as="points">
              <mxPoint x="590" y="513" />
            </Array>
          </mxGeometry>
        </mxCell>
        <mxCell id="Ruqp24-l0FOlhLBE5k4N-21" value="" style="edgeStyle=orthogonalEdgeStyle;rounded=0;orthogonalLoop=1;jettySize=auto;html=1;fontSize=14;" edge="1" parent="WIyWlLk6GJQsqaUBKTNV-1" source="Ruqp24-l0FOlhLBE5k4N-17" target="Ruqp24-l0FOlhLBE5k4N-20">
          <mxGeometry relative="1" as="geometry" />
        </mxCell>
        <mxCell id="Ruqp24-l0FOlhLBE5k4N-17" value="print(sum)" style="shape=document;whiteSpace=wrap;html=1;boundedLbl=1;fontSize=14;" vertex="1" parent="WIyWlLk6GJQsqaUBKTNV-1">
          <mxGeometry x="670" y="373" width="120" height="80" as="geometry" />
        </mxCell>
        <mxCell id="Ruqp24-l0FOlhLBE5k4N-18" value="" style="endArrow=classic;html=1;rounded=0;fontSize=14;exitX=0.5;exitY=0;exitDx=0;exitDy=0;entryX=0.5;entryY=0;entryDx=0;entryDy=0;" edge="1" parent="WIyWlLk6GJQsqaUBKTNV-1" source="Ruqp24-l0FOlhLBE5k4N-6" target="Ruqp24-l0FOlhLBE5k4N-17">
          <mxGeometry width="50" height="50" relative="1" as="geometry">
            <mxPoint x="290" y="393" as="sourcePoint" />
            <mxPoint x="340" y="343" as="targetPoint" />
            <Array as="points">
              <mxPoint x="290" y="353" />
              <mxPoint x="730" y="353" />
            </Array>
          </mxGeometry>
        </mxCell>
        <mxCell id="Ruqp24-l0FOlhLBE5k4N-19" value="No" style="edgeLabel;html=1;align=center;verticalAlign=middle;resizable=0;points=[];fontSize=14;" vertex="1" connectable="0" parent="Ruqp24-l0FOlhLBE5k4N-18">
          <mxGeometry x="-0.254" y="3" relative="1" as="geometry">
            <mxPoint as="offset" />
          </mxGeometry>
        </mxCell>
        <mxCell id="Ruqp24-l0FOlhLBE5k4N-20" value="end" style="ellipse;whiteSpace=wrap;html=1;fontSize=14;" vertex="1" parent="WIyWlLk6GJQsqaUBKTNV-1">
          <mxGeometry x="830" y="373" width="120" height="80" as="geometry" />
        </mxCell>
      </root>
    </mxGraphModel>
  </diagram>
</mxfile>
